<?xml version="1.0" encoding="iso-8859-1"?>
<!-- Uploaded to: SVG Repo, www.svgrepo.com, Generator: SVG Repo Mixer Tools -->
<svg height="800px" width="800px" version="1.1" id="Layer_1" xmlns="http://www.w3.org/2000/svg" xmlns:xlink="http://www.w3.org/1999/xlink" 
	 viewBox="0 0 512 512" xml:space="preserve">
<path style="fill:#C9D0D7;" d="M484.174,244.87h-66.783c-9.217,0-16.696-7.473-16.696-16.696v-77.913
	c0-27.619-22.468-50.087-50.087-50.087s-50.087,22.468-50.087,50.087v111.304c0,9.223-7.479,16.696-16.696,16.696h-66.783
	c-9.217,0-16.696-7.473-16.696-16.696V150.261C200.348,67.408,267.75,0,350.609,0S500.87,67.408,500.87,150.261v77.913
	C500.87,237.397,493.391,244.87,484.174,244.87z"/>
<path style="fill:#B8C2C9;" d="M400.696,150.261v77.913c0,9.223,7.479,16.696,16.696,16.696h66.783
	c9.217,0,16.696-7.473,16.696-16.696v-77.913C500.87,67.408,433.467,0,350.609,0v100.174
	C378.228,100.174,400.696,122.642,400.696,150.261z"/>
<path style="fill:#E79D2E;" d="M328.348,512H61.217c-27.619,0-50.087-22.468-50.087-50.087V294.957
	c0-27.619,22.468-50.087,50.087-50.087h267.13c27.619,0,50.087,22.468,50.087,50.087v166.957
	C378.435,489.532,355.967,512,328.348,512z"/>
<path style="fill:#D8842A;" d="M378.435,461.913V294.957c0-27.619-22.468-50.087-50.087-50.087H194.783V512h133.565
	C355.967,512,378.435,489.532,378.435,461.913z"/>
<g>
	<path style="fill:#6E6057;" d="M194.783,445.217c-9.217,0-16.696-7.473-16.696-16.696v-66.783c0-9.223,7.479-16.696,16.696-16.696
		c9.217,0,16.696,7.473,16.696,16.696v66.783C211.478,437.744,204,445.217,194.783,445.217z"/>
	<path style="fill:#6E6057;" d="M194.783,378.435c-18.413,0-33.391-14.978-33.391-33.391s14.978-33.391,33.391-33.391
		s33.391,14.978,33.391,33.391S213.196,378.435,194.783,378.435z M194.783,345.043h0.109H194.783z M194.783,345.038h0.109H194.783z
		 M194.783,345.038h0.109H194.783z M194.783,345.032L194.783,345.032L194.783,345.032z M194.783,345.032h0.109H194.783z
		 M194.783,345.027h0.109H194.783z M194.783,345.027h0.109H194.783z"/>
</g>
<g>
	<path style="fill:#615349;" d="M211.478,428.522v-66.783c0-9.223-7.479-16.696-16.696-16.696v100.174
		C204,445.217,211.478,437.744,211.478,428.522z"/>
	<path style="fill:#615349;" d="M194.783,378.435c18.413,0,33.391-14.978,33.391-33.391s-14.978-33.391-33.391-33.391V378.435z"/>
</g>
</svg>