<?xml version="1.0" encoding="iso-8859-1"?>
<!-- Uploaded to: SVG Repo, www.svgrepo.com, Generator: SVG Repo Mixer Tools -->
<svg height="800px" width="800px" version="1.1" id="Layer_1" xmlns="http://www.w3.org/2000/svg" xmlns:xlink="http://www.w3.org/1999/xlink" 
	 viewBox="0 0 512 512" xml:space="preserve">
<path style="fill:#C9D0D7;" d="M389.565,278.261h-66.783c-9.217,0-16.696-7.473-16.696-16.696V150.261
	c0-27.619-22.468-50.087-50.087-50.087s-50.087,22.468-50.087,50.087v111.304c0,9.223-7.479,16.696-16.696,16.696h-66.783
	c-9.217,0-16.696-7.473-16.696-16.696V150.261C105.739,67.408,173.142,0,256,0s150.261,67.408,150.261,150.261v111.304
	C406.261,270.788,398.782,278.261,389.565,278.261z"/>
<path style="fill:#B8C2C9;" d="M306.087,150.261v111.304c0,9.223,7.479,16.696,16.696,16.696h66.783
	c9.217,0,16.696-7.473,16.696-16.696V150.261C406.261,67.408,338.858,0,256,0v100.174
	C283.619,100.174,306.087,122.642,306.087,150.261z"/>
<path style="fill:#E79D2E;" d="M389.565,512h-267.13c-27.619,0-50.087-22.468-50.087-50.087V294.957
	c0-27.619,22.468-50.087,50.087-50.087h267.13c27.619,0,50.087,22.468,50.087,50.087v166.957
	C439.652,489.532,417.184,512,389.565,512z"/>
<path style="fill:#D8842A;" d="M439.652,461.913V294.957c0-27.619-22.468-50.087-50.087-50.087H256V512h133.565
	C417.184,512,439.652,489.532,439.652,461.913z"/>
<g>
	<path style="fill:#6E6057;" d="M256,445.217c-9.217,0-16.696-7.473-16.696-16.696v-66.783c0-9.223,7.479-16.696,16.696-16.696
		s16.696,7.473,16.696,16.696v66.783C272.696,437.744,265.217,445.217,256,445.217z"/>
	<path style="fill:#6E6057;" d="M256,378.435c-18.413,0-33.391-14.978-33.391-33.391s14.978-33.391,33.391-33.391
		s33.391,14.978,33.391,33.391S274.413,378.435,256,378.435z M256,345.043h0.109H256z M256,345.038h0.109H256z M256,345.038h0.109
		H256z M256,345.032L256,345.032L256,345.032z M256,345.032h0.109H256z M256,345.027h0.109H256z M256,345.027h0.109H256z"/>
</g>
<g>
	<path style="fill:#615349;" d="M272.696,428.522v-66.783c0-9.223-7.479-16.696-16.696-16.696v100.174
		C265.217,445.217,272.696,437.744,272.696,428.522z"/>
	<path style="fill:#615349;" d="M256,378.435c18.413,0,33.391-14.978,33.391-33.391S274.413,311.652,256,311.652V378.435z"/>
</g>
</svg>